<svg data-hk="s1000110" xmlns="http://www.w3.org/2000/svg" viewBox="0 0 468 77" class="w-[8.75rem] md:w-[9.375rem] overflow-visible"><path d="M3 1.07h8.75c1.66 0 3 1.33 3 2.99v36.21c0 .83.67 1.5 1.5 1.5h20.52c1.66 0 3 1.34 3 3v6.55c0 1.66-1.34 3-3 3H3c-1.66 0-3-1.34-3-3V4.07c0-1.66 1.34-3 3-3Zm45.63 0h34.99c1.66 0 3 1.34 3 3v6.55c0 1.66-1.34 3-3 3H61.73c-.83 0-1.5.67-1.5 1.5v5.06c0 .83.67 1.5 1.5 1.5h19.23c1.66 0 3 1.34 3 3v5.63c0 1.66-1.34 3-3 3H61.73c-.83 0-1.5.67-1.5 1.5v5.44c0 .83.67 1.5 1.5 1.5H84c1.66 0 3 1.34 3 3v6.55c0 1.66-1.34 3-3 3H48.63c-1.66 0-3-1.34-3-3V4.07c0-1.66 1.34-3 3-3Zm44.01 26.78v-.15C92.64 12.18 104.81.01 121.3.01c8.01 0 14.01 2.12 19.1 5.79 1.4 1.01 1.62 3.02.52 4.35l-4.85 5.84c-1.01 1.21-2.76 1.4-4.07.51-3.11-2.13-6.4-3.32-10.62-3.32-7.68 0-13.61 6.47-13.61 14.61v.15c0 8.6 6.01 14.76 14.45 14.76 2.7 0 4.92-.43 6.8-1.27 1.06-.47 1.72-1.56 1.72-2.73v-3.17c0-.83-.67-1.5-1.5-1.5h-5.99c-1.66 0-3-1.34-3-3v-4.8c0-1.66 1.34-3 3-3h18.48c1.66 0 3 1.34 3 3v18.48c0 1.63-.79 3.16-2.12 4.1-5.41 3.83-12.5 6.6-21 6.6-16.58 0-28.97-11.41-28.97-27.54ZM171.75.68h7.58c2.01 0 3.83 1.2 4.61 3.06l19.6 46.41c.84 1.98-.62 4.17-2.76 4.17h-7.92a5 5 0 0 1-4.63-3.12l-2.1-5.15a2.012 2.012 0 0 0-1.85-1.25h-17.83c-.82 0-1.55.5-1.86 1.26l-2.04 5.1a5.01 5.01 0 0 1-4.65 3.15h-7.6c-2.15 0-3.6-2.19-2.76-4.17l19.6-46.4a5.01 5.01 0 0 1 4.61-3.06Zm9.07 31.27-4.47-11.41c-.33-.85-1.53-.85-1.86 0l-4.53 11.41c-.26.66.22 1.37.93 1.37h9c.7 0 1.19-.71.93-1.37Zm42.27 8.32V4.07c0-1.66-1.34-3-3-3h-8.75c-1.66 0-3 1.34-3 3v47.25c0 1.66 1.34 3 3 3h23.79c1.43 0 2.79-.61 3.74-1.68l7.43-8.37c.86-.97.17-2.5-1.12-2.5h-20.59c-.83 0-1.5-.67-1.5-1.5Zm62.47 9.19v-.15c0-15.29 12.32-27.69 28.74-27.69s28.59 12.25 28.59 27.54v.15c0 15.29-12.32 27.69-28.74 27.69s-28.59-12.25-28.59-27.54Zm42.27 0v-.15c0-7.68-5.55-14.38-13.69-14.38s-13.46 6.54-13.46 14.23v.15c0 7.68 5.55 14.38 13.61 14.38s13.53-6.54 13.53-14.23Zm20.43 0v-.15c0-15.29 12.32-27.69 28.74-27.69s28.59 12.25 28.59 27.54v.15c0 15.29-12.32 27.69-28.74 27.69s-28.59-12.25-28.59-27.54Zm42.27 0v-.15c0-7.68-5.55-14.38-13.69-14.38s-13.46 6.54-13.46 14.23v.15c0 7.68 5.55 14.38 13.61 14.38s13.53-6.54 13.53-14.23Zm37.19-1.15c-.54-.83-1.84-.45-1.84.55v24.07c0 1.66-1.34 3-3 3h-8.44c-1.66 0-3-1.34-3-3V25.68c0-1.66 1.34-3 3-3h9.79c1.74 0 3.35.9 4.26 2.38l10.38 16.86a1 1 0 0 0 1.7 0l10.38-16.86a4.996 4.996 0 0 1 4.26-2.38H465c1.66 0 3 1.34 3 3v47.25c0 1.66-1.34 3-3 3h-8.67c-1.66 0-3-1.34-3-3V48.71c0-1-1.29-1.38-1.84-.55L440.82 64.5c-.59.91-1.92.91-2.51 0l-10.59-16.2Z" fill="currentColor"></path><path d="M280.98 22.68h-31.97c-1.43 0-2.79.61-3.74 1.68l-7.37 8.3c-.86.97-.17 2.5 1.12 2.5h22.35c.86 0 1.32 1.02.75 1.67l-23.94 26.96c-.81.92-1.26 2.1-1.26 3.33v5.82c0 1.66 1.34 3 3 3h41.51c1.66 0 3-1.34 3-3v-6.47c0-1.66-1.34-3-3-3h-21.91c-.86 0-1.32-1.02-.75-1.67l23.94-26.96c.81-.92 1.26-2.1 1.26-3.33v-5.82c0-1.66-1.34-3-3-3Z" fill="currentColor"></path></svg>